<svg id="visual" viewBox="0 0 960 540" width="960" height="540" xmlns="http://www.w3.org/2000/svg" xmlns:xlink="http://www.w3.org/1999/xlink" version="1.1"><rect x="0" y="0" width="960" height="540" fill="#001220"></rect><path d="M0 320L22.8 321.8C45.7 323.7 91.3 327.3 137 332.7C182.7 338 228.3 345 274 351.7C319.7 358.3 365.3 364.7 411.2 362.2C457 359.7 503 348.3 548.8 342.7C594.7 337 640.3 337 686 341.7C731.7 346.3 777.3 355.7 823 357.8C868.7 360 914.3 355 937.2 352.5L960 350L960 541L937.2 541C914.3 541 868.7 541 823 541C777.3 541 731.7 541 686 541C640.3 541 594.7 541 548.8 541C503 541 457 541 411.2 541C365.3 541 319.7 541 274 541C228.3 541 182.7 541 137 541C91.3 541 45.7 541 22.8 541L0 541Z" fill="#024059"></path><path d="M0 396L22.8 392.5C45.7 389 91.3 382 137 386.3C182.7 390.7 228.3 406.3 274 409.2C319.7 412 365.3 402 411.2 400.5C457 399 503 406 548.8 412.7C594.7 419.3 640.3 425.7 686 423.5C731.7 421.3 777.3 410.7 823 401C868.7 391.3 914.3 382.7 937.2 378.3L960 374L960 541L937.2 541C914.3 541 868.7 541 823 541C777.3 541 731.7 541 686 541C640.3 541 594.7 541 548.8 541C503 541 457 541 411.2 541C365.3 541 319.7 541 274 541C228.3 541 182.7 541 137 541C91.3 541 45.7 541 22.8 541L0 541Z" fill="#40477a"></path><path d="M0 429L22.8 425.8C45.7 422.7 91.3 416.3 137 417.8C182.7 419.3 228.3 428.7 274 436C319.7 443.3 365.3 448.7 411.2 445.3C457 442 503 430 548.8 422.3C594.7 414.7 640.3 411.3 686 416.5C731.7 421.7 777.3 435.3 823 438.8C868.7 442.3 914.3 435.7 937.2 432.3L960 429L960 541L937.2 541C914.3 541 868.7 541 823 541C777.3 541 731.7 541 686 541C640.3 541 594.7 541 548.8 541C503 541 457 541 411.2 541C365.3 541 319.7 541 274 541C228.3 541 182.7 541 137 541C91.3 541 45.7 541 22.8 541L0 541Z" fill="#894079"></path><path d="M0 449L22.8 449.7C45.7 450.3 91.3 451.7 137 457.8C182.7 464 228.3 475 274 479C319.7 483 365.3 480 411.2 480.3C457 480.7 503 484.3 548.8 484.7C594.7 485 640.3 482 686 474.2C731.7 466.3 777.3 453.7 823 447.5C868.7 441.3 914.3 441.7 937.2 441.8L960 442L960 541L937.2 541C914.3 541 868.7 541 823 541C777.3 541 731.7 541 686 541C640.3 541 594.7 541 548.8 541C503 541 457 541 411.2 541C365.3 541 319.7 541 274 541C228.3 541 182.7 541 137 541C91.3 541 45.7 541 22.8 541L0 541Z" fill="#bb3f53"></path><path d="M0 473L22.8 475.2C45.7 477.3 91.3 481.7 137 482.5C182.7 483.3 228.3 480.7 274 479.8C319.7 479 365.3 480 411.2 481.3C457 482.7 503 484.3 548.8 484.7C594.7 485 640.3 484 686 487.5C731.7 491 777.3 499 823 499.2C868.7 499.3 914.3 491.7 937.2 487.8L960 484L960 541L937.2 541C914.3 541 868.7 541 823 541C777.3 541 731.7 541 686 541C640.3 541 594.7 541 548.8 541C503 541 457 541 411.2 541C365.3 541 319.7 541 274 541C228.3 541 182.7 541 137 541C91.3 541 45.7 541 22.8 541L0 541Z" fill="#bf6415"></path></svg>